# xmcd CD database file
#
# Track frame offsets:
#	150
#	4660
#	35573
#	57259
#	77296
#	122069
#	145605
#	173192
#	195499
#
# Disc length: 2687 seconds
#
# Revision: 0
# Processed by: cddbd v1.5.2PL0 Copyright (c) Steve Scherf et al.
# Submitted via: CDex 1.70beta2
#
DISCID=680a7d09
DTITLE=Lorenz Hargassner Quartet - Diversityville
DYEAR=2007
DGENRE=Jazz
TTITLE0=Jingle Intro
TTITLE1=Verfranst
TTITLE2=Senior's Dream
TTITLE3=Sudoku
TTITLE4=July 1st
TTITLE5=Lullabye
TTITLE6=Re-Joice
TTITLE7=Mailbox
TTITLE8=Jingle Coda
EXTD=YEAR: 2007
EXTT0=
EXTT1=
EXTT2=
EXTT3=
EXTT4=
EXTT5=
EXTT6=
EXTT7=
EXTT8=
PLAYORDER=
